<?xml version="1.0" encoding="UTF-8" standalone="no"?>
<!-- Created with Inkscape (http://www.inkscape.org/) -->

<svg
   xmlns:dc="http://purl.org/dc/elements/1.1/"
   xmlns:cc="http://creativecommons.org/ns#"
   xmlns:rdf="http://www.w3.org/1999/02/22-rdf-syntax-ns#"
   xmlns:svg="http://www.w3.org/2000/svg"
   xmlns="http://www.w3.org/2000/svg"
   xmlns:sodipodi="http://sodipodi.sourceforge.net/DTD/sodipodi-0.dtd"
   xmlns:inkscape="http://www.inkscape.org/namespaces/inkscape"
   id="svg2"
   version="1.1"
   inkscape:version="0.48.4 r9939"
   width="980.0625"
   height="274.4375"
   sodipodi:docname="Richelieu-1.jpg">
  <metadata
     id="metadata8">
    <rdf:RDF>
      <cc:Work
         rdf:about="">
        <dc:format>image/svg+xml</dc:format>
        <dc:type
           rdf:resource="http://purl.org/dc/dcmitype/StillImage" />
        <dc:title></dc:title>
      </cc:Work>
    </rdf:RDF>
  </metadata>
  <defs
     id="defs6" />
  <sodipodi:namedview
     pagecolor="#ffffff"
     bordercolor="#666666"
     borderopacity="1"
     objecttolerance="10"
     gridtolerance="10"
     guidetolerance="10"
     inkscape:pageopacity="0"
     inkscape:pageshadow="2"
     inkscape:window-width="1233"
     inkscape:window-height="926"
     id="namedview4"
     showgrid="false"
     fit-margin-top="0"
     fit-margin-left="0"
     fit-margin-right="0"
     fit-margin-bottom="0"
     inkscape:zoom="0.49741305"
     inkscape:cx="522.04057"
     inkscape:cy="321.65579"
     inkscape:window-x="0"
     inkscape:window-y="0"
     inkscape:window-maximized="0"
     inkscape:current-layer="svg2" />
  <path
     style="fill:#000000;fill-opacity:1;stroke:#000000;stroke-width:1px;stroke-linecap:butt;stroke-linejoin:miter;stroke-opacity:1"
     d="m 467.67692,33.957988 0,38.187502 -1.4375,0 c -1.18132,0 -2.125,0.97492 -2.125,2.15625 l 0,1.40625 -4.625,0 0,6.59375 0.875,0 0,3.375 -1.75,0 0,7.09375 1.75,0 0,3.375 -4.0625,0 0,8.34375 2.125,0 0,11.03125 -4.09375,0 0,3.03125 -20.96875,0 0,0.15625 20.96875,0 0,19.40625 -8.53125,0 0,0.125 8.53125,0 0,4.625 -8.78125,0 0,-2.25 8.53125,0 0,-0.125 -8.53125,0 0,-2.375 -0.125,0 0,4.75 -0.125,0 0,1.15625 9.03125,0 0,4.34375 -3.0625,0 0,0.125 3.0625,0 0,2.25 -3.3125,0 0,-2.375 -0.125,0 0,5.1875 -0.0625,0 0,1.125 3.5,0 0,3.34375 -2.9375,0 0,0.125 2.9375,0 0,2.25 -3.1875,0 0,-2.375 -0.125,0 0,5.46875 -1.3125,0 0,0.71875 4.625,0 0,11.71875 0,9.96875 -16.125,0 -0.28125,-1.40625 c -0.43043,-0.50594 -0.96113,-0.88377 -1.5625,-1.21875 l 5.65625,-4.28125 -0.53125,-0.71875 c 0,0 -4.66297,3.13865 -6.71875,4.34375 -2.01095,-0.62666 -4.51593,-0.78369 -7.15625,-0.78125 l -0.0625,1.875 -5.625,0 0,2.1875 -13.09375,0 -15.5625,0 0,-13.25 -10.0625,0 0,-22.34375 10.0625,0 0,-4.03125 -4.03125,0 0,-2.5 -1.75,0 0,2.5 -4.28125,0 0,-6.28125 2.53125,0 0,-0.75 -2.53125,0 -1.25,0 0,-11.0625 5.78125,0 0,-3.28125 -5.78125,0 0,-2.3125 c 1.07106,-0.46009 1.75,-1.14982 1.75,-1.9375 l 0,-3.78125 c 0,-1.3922 -2.10481,-2.5 -4.75,-2.5 l -2.53125,0 0,-56.3125 -0.75,0 0,52.78125 -3.78125,0 0,3.53125 -1,0 c -2.64519,0 -4.75,1.1078 -4.75,2.5 l 0,3.78125 c 0,0.84787 0.78486,1.57657 2,2.03125 l 0,2.21875 -18.34375,0 0,3.28125 18.09375,0 0,11.0625 -10.28125,0 -3.8125,-3.53125 c -0.5636,-0.9351 -1.62308,-1.5529 -5.5,-0.5 l -11.0625,9.0625 c -1.35593,1.45085 -1.00867,2.24837 -0.5,3 l 15.0625,12.1875 0,16.96875 -13.5625,0 0,-7.03125 0.5,0 0,-4.28125 -8.78125,0 0,-11.0625 -1.03125,0 0,11.0625 -1,0 c -4.59427,0 -8.28125,0.99702 -8.28125,2.25 l 0,18.53125 -11.0625,0 0,-2.9375 -26.125,0 0,2.9375 -4.03125,0 0,10.71875 -12.5,0.0312 0,-3.03125 -26.125,0 0,3.125 -46.71875,0.15625 c -1.28611,4.45862 1.51238,10.09032 -9.15625,9.1875 l -148.250002,0 0.5,16.59375 c 0.335679,5.36046 2.011535,9.35483 7.53125,9.53125 l 880.562502,0.5 c 0.80621,-17.95754 8.82742,-28.69008 16.09375,-40.1875 -20.97271,0.45051 -67.02172,3.45502 -123.875,6.3125 l 0,-3.71875 -2.5,0 0,3.84375 c -0.71668,0.0358 -1.40497,0.0581 -2.125,0.0937 l 0,-0.0312 -8.53125,0 0,-3.53125 -0.34375,0 0,3.53125 -3.5625,0 0,-3.53125 -0.71875,0 0,3.53125 -8.53125,0 0,1.0625 c -20.20907,0.92846 -41.40246,1.80509 -63.09375,2.5 l -18.46875,0 0,-1.40625 -52.59375,0 0,1.40625 -9.40625,0 0,-3.5625 -10.3125,0 0,3.5625 -1.78125,0 0,1.65625 c -9.19214,0.006 -18.35273,-0.0436 -27.40625,-0.15625 l -0.5,-8.5625 -15.28125,0.0625 0,-10.75 -52.59375,0 0,10.90625 -22.21875,0.0937 0,-9.9375 0,-20.625 -28.4375,0 0,-2.125 28.8125,0 c 0.78755,0 1.40625,-0.64995 1.40625,-1.4375 l 0,-12.0625 c 0,-0.33657 -0.11841,-0.66326 -0.3125,-0.90625 l 2.28125,0 0,-0.34375 -2.71875,0 c -0.20146,-0.10917 -0.41014,-0.1875 -0.65625,-0.1875 l 0,-1.40625 -11.0625,0 c 0.0285,-0.11252 0.0312,-0.25339 0.0312,-0.375 l 0,-1.78125 c 0,-0.78755 -0.6187,-1.40625 -1.40625,-1.40625 l -8.1875,0 c -0.78755,0 -1.40625,0.6187 -1.40625,1.40625 l 0,1.78125 c 0,0.12407 0.002,0.26043 0.0312,0.375 l -0.0312,0 0,1.40625 -6.78125,0 0,-31.8125 2.3125,0 0,0.53125 2.3125,0 0,-0.53125 12.09375,0 0,-0.15625 -12.09375,0 0,-2.3125 1.59375,0 0,-3.21875 -1.59375,0 0,-2.46875 -0.15625,0 0,-3.90625 -3.21875,0 0,4.25 1.0625,0 0,2.125 -14.21875,0 0,-6.21875 2.3125,0 0,-8.34375 -4.4375,0 0,-3.375 3.375,0 0,-7.09375 -3.375,0 0,-3.375 1.25,0 0,-6.59375 -5.34375,0 0,-1.40625 c 0,-1.18133 -0.94368,-2.15625 -2.125,-2.15625 l 0,-38.187502 -0.15625,0 z m -58.84375,151.937502 10.84375,-0.375 -0.34375,-1.78125 c -0.43043,-0.50594 -0.96113,-0.88377 -1.5625,-1.21875 l 5.65625,-4.28125 -0.53125,-0.71875 c 0,0 -4.66297,3.13865 -6.71875,4.34375 -2.01095,-0.62666 -4.51593,-0.78369 -7.15625,-0.78125 l -0.1875,4.8125 z m -35.40625,-121.3125 0,0.78125 1.5,0 0,-0.78125 -1.5,0 z m 73.625,44.90625 0,5.3125 10.84375,0 0,-5.3125 -10.84375,0 z m 29.125,4.4375 14.21875,0 0,2.3125 -2.3125,0 0,-0.71875 -11.90625,0 0,-1.59375 z m 13.6875,4.78125 0,6.59375 3.75,0 0,-6.59375 -3.75,0 z m -38.84375,32.15625 3.3125,0 0,2.6875 -3.3125,0 0,-2.6875 z m 68,4.09375 0,9.96875 7.09375,0 0,-9.96875 -7.09375,0 z m -67.875,5.5625 3.1875,0 0,2.96875 -3.1875,0 0,-2.96875 z m 79.25,9.375 0.34375,14.03125 54.75,0 2.65625,-0.1875 -0.84375,-1.28125 0.3125,0.0625 c 0,0 -0.21792,-1.14297 -0.375,-1.9375 l 4.46875,-0.21875 -0.0937,-0.8125 36.15625,0.125 0.34375,-2.15625 -36.84375,-0.6875 -0.0937,-0.71875 -4.84375,-0.15625 c -0.0411,-0.23611 -0.13707,-0.77199 -0.15625,-0.90625 -0.15938,-1.11573 -2.44181,-0.38365 -3.8125,-0.21875 l -0.8125,-1.21875 -29.84375,-3.53125 -21.3125,-0.1875 z m -220.0625,0.25 -3,1.25 -0.90625,2.71875 -0.34375,-0.96875 -11.78125,1.53125 -7.59375,0 -0.46875,1.0625 -0.90625,0.0937 -27,0.34375 0.25,1.25 25.34375,0.15625 -2.21875,4.625 27.625,0 -0.4375,-1.25 2.1875,0 0,-6 1.03125,-0.0312 -1.78125,-4.78125 z m -42.65625,10.65625 -3,1.25 -0.90625,2.71875 -0.34375,-0.96875 -11.78125,1.53125 -7.59375,0 -0.46875,1.0625 -0.90625,0.0937 -27,0.34375 0.25,1.25 25.34375,0.15625 -2.21875,4.625 27.625,0 -0.4375,-1.25 2.1875,0 0,-6 1.03125,-0.0312 -1.78125,-4.78125 z m 380,5.4375 0.34375,14.03125 54.75,0 2.65625,-0.1875 -0.84375,-1.28125 0.3125,0.0625 c 0,0 -0.21792,-1.14297 -0.375,-1.9375 l 4.46875,-0.21875 -0.0937,-0.8125 36.15625,0.125 0.34375,-2.15625 -36.84375,-0.6875 -0.0937,-0.71875 -4.84375,-0.15625 c -0.0411,-0.23611 -0.13707,-0.77199 -0.15625,-0.90625 -0.15938,-1.11573 -2.44181,-0.38365 -3.8125,-0.21875 l -0.8125,-1.21875 -29.84375,-3.53125 -21.3125,-0.1875 z m 176.96875,9.59375 0,2.125 3.90625,0 0,-2.125 -3.90625,0 z"
     id="path2987"
     inkscape:connector-curvature="0" />
</svg>
